<svg version="1" xmlns="http://www.w3.org/2000/svg" width="346.667" height="346.667" viewBox="0 0 260.000000 260.000000"><path d="M176.3 32.1c-19.4 3.1-33.5 16.4-37.3 35.4-1.7 8.1-.7 24.3 1.9 31.7 4.4 12.8 8.8 18 34.1 40.1 25.8 22.7 30.8 29.9 31.1 45.4.3 11.1-4.7 17.3-14.5 18.1-4.6.4-6.2 0-10-2.2-2.4-1.4-5.3-4.1-6.5-5.9-2.6-4.2-6-16.8-6.2-23.2-.1-2.8-.4-5.3-.5-5.6-.3-.5-11.9 1.5-26.9 4.5-1.1.3-2.4.5-2.9.5-.5.1-.6 3.3-.3 7.3 3 35.8 21.7 53.4 55.7 52.3 23.5-.7 40.4-14.3 45.4-36.5 2.6-11.8.5-28.3-5.1-39.5-5.7-11.2-13.1-19.6-32.3-36.5-21.7-19-24.7-22.2-27.9-29-4.7-10.4-2.9-23.3 4.2-28.4 4.2-3.1 15-3 19.4.2 4 2.9 7.1 10.8 7.9 20.5.3 3.9.7 7.4 1 7.8.2.4 2.1.3 4.1-.1 2.1-.5 5.6-1.1 7.8-1.4 2.3-.4 5.2-.9 6.5-1.2 1.4-.2 4.7-.7 7.3-1.1l4.9-.6-.7-6.6c-.4-3.6-1.8-10.1-3.1-14.4-5.5-17.2-13.7-26.2-27.8-30.2-6.7-1.9-21.4-2.6-29.3-1.4zM20.6 34c-.1.3-.2 43.9-.2 97l.1 96.5H55c36.1 0 38.6-.2 47.1-3.5 16-6.3 24.6-18.6 28.4-40.5.3-1.7.5-7.5.5-13 0-16.2-4.4-28.9-12.8-37.1-3.9-3.8-10.7-7.6-15.7-8.8l-3-.8 5.2-2.2c15.3-6.5 21.9-20.2 20.7-42.9C124 52.5 110.9 38.5 84 34.4c-5.4-.8-63-1.2-63.4-.4zm55 25.5c5.2.7 11 3.3 13.6 6.2 4.6 5.1 6.6 17.4 4.6 28.5-2.5 13.8-8.2 17.7-26.5 18.6l-11.3.5v-27c0-14.8.2-27.2.5-27.4.6-.7 13.1-.3 19.1.6zm3.8 79.6c8.1 1.9 13.5 7.9 16.1 18 1.8 6.8 1.8 21.4 0 28.4-3.4 12.8-9.5 16.6-27.7 17.3l-11.8.4v-32.5c0-29.4.2-32.6 1.6-32.9 3.4-.6 17 .2 21.8 1.3z"/></svg>