<svg version="1" xmlns="http://www.w3.org/2000/svg" width="346.667" height="346.667" viewBox="0 0 260.000000 260.000000"><path d="M171.5 37.1c-17.5 5.4-27.4 19.1-28 38.9-.5 11.8.8 18.8 4.7 26.5 4.4 8.8 8.5 13.3 24.6 27.4 8 6.9 16.7 14.8 19.5 17.5 10.1 10.1 14.1 19.4 13.2 30.5-.5 6.2-1.4 8-5.7 11.6-2.9 2.4-3.8 2.7-9.3 2.3-7-.4-10.3-2.4-13.5-8.1-2.4-4.2-3.8-8.4-4.6-14-.3-2.1-.7-4.6-.9-5.5-.2-.9-.4-2.9-.4-4.3l-.1-2.6-13.7 2.8c-7.6 1.6-14 2.9-14.2 2.9-.2 0-.1 2.8.3 6.2 2 20 7.9 32.4 19.4 40.6 11.8 8.3 35 10.1 49.6 3.9 9.1-4 17.9-13.4 22.1-23.7 2.5-6.2 3-23.3.9-31.4-4.2-16.2-11-24.8-38.6-48.9-7.9-6.9-15.8-14.5-17.5-16.9-7.2-10.1-7.3-23.6-.2-30.4 2.5-2.4 3.9-2.9 8.8-3.1 10-.3 15.1 5 16.7 17.3.3 2.7.7 5.8.9 6.9.1 1.1.3 2.6.4 3.4.1 1 1 1.2 3.9.7 2-.4 8.2-1.4 13.7-2.4l10-1.7.1-3c.1-4.8-2.5-16.2-5.1-22.1-5.2-11.7-12.7-18.7-23.2-21.8-7.6-2.2-26.2-1.9-33.8.5zM25.3 36.8l-2.1.3V215h30.6c33.3 0 38.6-.6 48.3-5.6 2.8-1.4 7.2-4.6 9.7-7.2 4.3-4.5 9.8-14.4 10.7-19.4.3-1.2.9-4.6 1.4-7.3.5-2.8.8-9.5.6-15-.4-11.7-2.8-20.5-7.6-27.6-3.5-5.1-12-11.3-16.9-12.4-3.1-.7-4.2-2.5-1.5-2.5 4.7 0 13.7-7.3 17-13.8 5.6-11.3 5.3-34.6-.7-46.5-6.1-12.2-21.2-19.9-40.3-20.6-11.3-.4-46.8-.6-49.2-.3zM74 60.5c4.9.8 11.6 4.2 13.3 6.8 4.9 7.6 5.2 23.9.6 32.9-1.1 2.1-3.1 4.5-4.6 5.5-3.4 2.3-11.6 3.8-20 3.8h-6.8l-.3-24c-.1-13.2 0-24.5.2-25.1.5-1.2 9.5-1.1 17.6.1zm4 73.2c7.6 2.5 13.2 9.4 14.5 17.9 2.8 18.4-.6 32-9.3 37.1-4 2.4-5.8 2.7-15.9 3.1l-11.3.4v-60l9.8.3c5.3.2 10.8.7 12.2 1.2z"/></svg>