<svg version="1" xmlns="http://www.w3.org/2000/svg" width="346.667" height="346.667" viewBox="0 0 260.000000 260.000000"><path d="M173.5 38.6c-23.5 3.7-36 20.1-35 45.9.7 20.3 4.9 27 31.3 50.1 22.3 19.6 27.3 25.4 29.7 34.5 1.6 6.2 1.1 16.3-1 19.5-2.5 3.8-7.5 6.4-12.3 6.4-12.3 0-19-11-20.1-33.1-.1-1.5-1.3-1.4-11.8.7-6.5 1.3-12.9 2.6-14.2 2.9-2.2.6-2.3.8-1.7 7.5 3 31.9 20.6 48.5 50.1 47.3 9.1-.3 9.5-.4 15-2.3 14-4.7 23.9-15.9 27.5-30.9 1.7-7.4.8-21.9-2-30.1-4.3-12.7-12.4-22.6-34-41.5-22.8-19.9-25.2-23.1-25.8-35-.2-5.3.1-7.8 1.5-10.5 3.7-7.1 11.9-9.8 19.8-6.6 5.6 2.4 8 7.8 10.1 22.6.3 2.5.7 4.7 1 4.9.2.2 4.1-.3 8.6-1.2 4.6-.9 10.3-1.9 12.8-2.2 2.4-.4 4.8-.9 5.3-1.2 1.2-.8-.3-11.1-2.9-19.5-7.2-22.9-24.6-32.4-51.9-28.2zM31.6 40.2c-1.1.6-1.3 17.7-1.3 89.3v88.6L61 218c22.9-.1 32.3-.5 36.9-1.5 21.3-5 32.7-20.7 33.6-46.5.8-26.1-6.6-39.6-26-47.1l-3-1.2 3-.7c12.8-2.9 20.4-14.9 21-33 .8-21.3-5.9-35.1-20.1-42-7-3.3-7.5-3.5-16.9-5.1-6.9-1.2-56-1.8-57.9-.7zm51.9 24C94 66.8 98.2 73.1 98.1 86c-.2 19.3-6.1 25.9-23.7 26.4-4.9.2-9.5.1-10.1-.2-1.9-.6-1.9-48.8 0-49.5 1.9-.6 14.7.3 19.2 1.5zM82 136.1c12.8 2.7 18.1 11.3 18.2 29.4.1 14.7-3.1 22.8-10.7 26.7-3.2 1.7-6.4 2.2-15.2 2.6l-11.3.5v-59.9l7.3-.1c3.9-.1 9.2.3 11.7.8z"/></svg>